<?xml version="1.0" encoding="utf-8"?>
<!-- Generator: Adobe Illustrator 12.0.0, SVG Export Plug-In . SVG Version: 6.00 Build 51448)  -->
<!DOCTYPE svg PUBLIC "-//W3C//DTD SVG 1.1//EN" "http://www.w3.org/Graphics/SVG/1.1/DTD/svg11.dtd" [
	<!ENTITY ns_svg "http://www.w3.org/2000/svg">
	<!ENTITY ns_xlink "http://www.w3.org/1999/xlink">
]>
<svg  version="1.1"
	 id="svg2" xmlns:dc="http://purl.org/dc/elements/1.1/" xmlns:rdf="http://www.w3.org/1999/02/22-rdf-syntax-ns#" xmlns:svg="http://www.w3.org/2000/svg" xmlns:cc="http://creativecommons.org/ns#"
	 xmlns="&ns_svg;" xmlns:xlink="&ns_xlink;" width="24" height="24" viewBox="0 0 24 24"
	 overflow="visible" enable-background="new 0 0 24 24" xml:space="preserve">
<g>
	<title>Layer 1</title>
	<path id="svg_1" fill="#151519" d="M16.231,7.129c0-2.914-2.354-5.275-5.26-5.275V0.166c3.835,0,6.945,3.118,6.945,6.963
		s-3.109,6.962-6.945,6.962v-1.687C13.877,12.405,16.231,10.042,16.231,7.129z M12.865,7.129c0-1.049-0.849-1.899-1.894-1.899V3.542
		c1.976,0,3.579,1.606,3.579,3.587s-1.603,3.587-3.579,3.587S7.394,9.11,7.394,7.129h1.684c0,1.049,0.848,1.899,1.894,1.899
		C12.017,9.028,12.865,8.178,12.865,7.129z"/>
	<path id="svg_2" fill="#151519" d="M0.543,17.955h1.323c0.414,0,0.764,0.094,1.035,0.298c0.302,0.226,0.447,0.551,0.447,0.952
		c0,0.416-0.153,0.761-0.46,1.015H2.886l0,0c-0.289,0.238-0.653,0.351-1.077,0.351H1.266v0.635H0.543V17.955z M2.408,19.713
		L2.408,19.713c0.124-0.107,0.193-0.259,0.193-0.483c0-0.203-0.072-0.341-0.21-0.438c-0.132-0.093-0.321-0.147-0.584-0.147H1.266
		v1.236H1.86C2.111,19.881,2.286,19.818,2.408,19.713L2.408,19.713z"/>
	<path id="svg_3" fill="#151519" d="M4.568,17.955h2.513v0.689H5.292v0.44h1.594v0.688H5.292v0.743h1.831v0.688H4.568V17.955z"/>
	<path id="svg_4" fill="#151519" d="M8.387,17.955h1.365c0.478,0,0.88,0.135,1.19,0.419c0.32,0.295,0.476,0.688,0.476,1.159
		c0,0.496-0.158,0.907-0.483,1.219c-0.321,0.307-0.741,0.453-1.24,0.453H8.387V17.955z M10.405,18.889
		c-0.171-0.158-0.403-0.244-0.712-0.244H9.112v1.872h0.634c0.304,0,0.523-0.091,0.682-0.255c0.157-0.163,0.243-0.391,0.243-0.704
		C10.671,19.264,10.579,19.047,10.405,18.889L10.405,18.889z"/>
	<path id="svg_5" fill="#151519" d="M13.772,17.955h0.439l1.405,3.25H14.83l-0.276-0.635h-1.232l-0.297,0.635h-0.769L13.772,17.955z
		 M13.648,19.829h0.612c-0.102-0.233-0.208-0.468-0.293-0.709C13.872,19.362,13.758,19.595,13.648,19.829z"/>
	<path id="svg_6" fill="#151519" d="M16.622,17.955h0.586l1.618,1.983v-1.983h0.683v3.25h-0.572l-1.632-2v2h-0.683V17.955z"/>
	<path id="svg_7" fill="#151519" d="M20.69,18.645v-0.689h2.907v0.689h-1.092v2.561h-0.725v-2.561H20.69z"/>
</g>
</svg>
